<?xml version="1.0" encoding="UTF-8" standalone="no"?>
<svg
   xmlns:dc="http://purl.org/dc/elements/1.1/"
   xmlns:cc="http://creativecommons.org/ns#"
   xmlns:rdf="http://www.w3.org/1999/02/22-rdf-syntax-ns#"
   xmlns:svg="http://www.w3.org/2000/svg"
   xmlns="http://www.w3.org/2000/svg"
   xmlns:sodipodi="http://sodipodi.sourceforge.net/DTD/sodipodi-0.dtd"
   xmlns:inkscape="http://www.inkscape.org/namespaces/inkscape"
   width="16"
   height="16"
   viewBox="0 0 4.2333332 4.2333335"
   version="1.1"
   id="svg8"
   inkscape:version="1.0.2 (e86c870879, 2021-01-15)"
   sodipodi:docname="Rabbik.svg"
   inkscape:export-filename="E:\Code\RabbikEngine\Icon\Rabbik\RabbikDocs.png"
   inkscape:export-xdpi="576.00006"
   inkscape:export-ydpi="576.00006">
  <defs
     id="defs2" />
  <sodipodi:namedview
     id="base"
     pagecolor="#ffffff"
     bordercolor="#666666"
     borderopacity="1.0"
     inkscape:pageopacity="0.0"
     inkscape:pageshadow="2"
     inkscape:zoom="22.627417"
     inkscape:cx="9.0551817"
     inkscape:cy="3.8293294"
     inkscape:document-units="mm"
     inkscape:current-layer="g859"
     inkscape:document-rotation="0"
     showgrid="true"
     units="px"
     inkscape:pagecheckerboard="true"
     showguides="true"
     inkscape:guide-bbox="true"
     inkscape:window-width="1333"
     inkscape:window-height="991"
     inkscape:window-x="569"
     inkscape:window-y="0"
     inkscape:window-maximized="0"
     inkscape:snap-text-baseline="true">
    <inkscape:grid
       type="xygrid"
       id="grid833"
       spacingx="0.013229167"
       spacingy="0.013229167" />
    <sodipodi:guide
       position="2.1166667,2.1166667"
       orientation="1,0"
       id="guide863" />
    <sodipodi:guide
       position="2.1166666,2.1166667"
       orientation="0,-1"
       id="guide865" />
    <sodipodi:guide
       position="0.68791666,1.3361458"
       orientation="0,-1"
       id="guide851" />
    <sodipodi:guide
       position="0.60854166,0.72760411"
       orientation="0,-1"
       id="guide853" />
    <sodipodi:guide
       position="0.635,1.9446875"
       orientation="0,-1"
       id="guide855" />
  </sodipodi:namedview>
  <metadata
     id="metadata5">
    <rdf:RDF>
      <cc:Work
         rdf:about="">
        <dc:format>image/svg+xml</dc:format>
        <dc:type
           rdf:resource="http://purl.org/dc/dcmitype/StillImage" />
        <dc:title></dc:title>
      </cc:Work>
    </rdf:RDF>
  </metadata>
  <g
     inkscape:groupmode="layer"
     id="layer6"
     inkscape:label="图层 6">
    <g
       inkscape:groupmode="layer"
       id="g859"
       inkscape:label="图层 5 复制"
       style="display:inline">
      <path
         style="display:inline;fill:#ffffff;fill-opacity:1;stroke:none;stroke-width:0.185;stroke-linecap:butt;stroke-linejoin:miter;stroke-miterlimit:4;stroke-dasharray:none;stroke-opacity:1"
         d="m 2.1166667,4.0969122 c 1.1178645,0 1.5478126,-0.591183 1.5478126,-1.1997247 0,-0.6085416 -0.2579688,-0.8640253 -0.4299481,-1.0360045 C 3.5784897,1.5172246 4.0084375,0.31337048 3.4925001,0.14139129 2.9765625,0.05540173 2.6326042,1.0012871 2.5466147,1.6892038 c -0.3439583,-0.08599 -0.5159375,-0.08599 -0.859896,0 C 1.6007292,1.0012871 1.2567708,0.05540173 0.74083341,0.14139129 0.22489581,0.31337048 0.65484377,1.5172246 0.99880203,1.861183 0.82682295,2.0331622 0.56885418,2.2886459 0.56885418,2.8971876 c 0,0.6085417 0.42994785,1.1997246 1.54781252,1.1997246 z"
         id="path857"
         sodipodi:nodetypes="cccccccccc" />
    </g>
    <g
       inkscape:groupmode="layer"
       id="layer9"
       inkscape:label="图层 9"
       style="display:inline">
      <circle
         style="display:inline;fill:#3cbfc4;fill-opacity:1;stroke:#2c839b;stroke-width:0.05291667;stroke-linecap:round;stroke-linejoin:round;stroke-miterlimit:4;stroke-dasharray:none;stroke-opacity:1"
         id="path892"
         cx="0.73424399"
         cy="0.7927646"
         r="0.21812493" />
      <circle
         style="display:inline;fill:#3cbfc4;fill-opacity:1;stroke:#2c839b;stroke-width:0.05291667;stroke-linecap:round;stroke-linejoin:round;stroke-miterlimit:4;stroke-dasharray:none;stroke-opacity:1"
         id="path894"
         cx="3.5093005"
         cy="0.7927646"
         r="0.21812493" />
    </g>
    <g
       inkscape:groupmode="layer"
       id="layer7"
       inkscape:label="图层 7"
       style="display:none">
      <path
         style="display:inline;fill:#233564;fill-opacity:1;stroke:none;stroke-width:0.343958px;stroke-linecap:butt;stroke-linejoin:miter;stroke-opacity:1"
         d="m 2.1171542,2.2055024 c -0.429948,0 -1.031875,-0.6879167 -1.20385421,0.6019271 0,0.6879167 0.79345971,0.4299478 1.20385421,0.4299479 0.4103944,0 1.2038541,0.2579688 1.2038541,-0.4299478 C 3.2350187,1.5175857 2.5471022,2.2055024 2.1171542,2.2055024 Z"
         id="path896"
         sodipodi:nodetypes="ccccc" />
    </g>
    <g
       inkscape:groupmode="layer"
       id="layer4"
       inkscape:label="图层 4"
       style="display:none">
      <path
         style="fill:#c3e4e5;fill-opacity:1;stroke:none;stroke-width:0.343958px;stroke-linecap:butt;stroke-linejoin:miter;stroke-opacity:1"
         d="m 0.65484373,3.3232244 c 0,0 0.3439583,0.8598958 1.46182297,0.7739062 1.1178645,-0.08599 1.5478124,-0.6879167 1.5478124,-0.7739062 0,-0.08599 -0.8598957,0.4299479 -1.5478124,0.4299479 -0.6879167,0 -1.46182297,-0.4299479 -1.46182297,-0.4299479 z"
         id="path935"
         sodipodi:nodetypes="csssc" />
      <path
         style="fill:#c3e4e5;fill-opacity:1;stroke:none;stroke-width:0.343958px;stroke-linecap:butt;stroke-linejoin:miter;stroke-opacity:1"
         d="m 0.65484375,0.2249447 c 0.25796874,-0.0859895 0.42994795,0 0.72926595,0.40806954 C 1.6093689,0.94011703 1.6867187,1.6867676 1.6387335,1.7746766 1.5147397,1.6867676 1.42875,0.2249447 0.65484375,0.2249447 Z"
         id="path1027"
         sodipodi:nodetypes="cscc" />
      <path
         style="display:inline;fill:#c3e4e5;fill-opacity:1;stroke:none;stroke-width:0.343958px;stroke-linecap:butt;stroke-linejoin:miter;stroke-opacity:1"
         d="m 3.5774139,0.22466637 c -0.2579687,-0.0859895 -0.4299479,0 -0.7292659,0.40806954 C 2.6228888,0.9398387 2.5455389,1.6864894 2.5935241,1.7743984 2.717518,1.6864894 2.8035077,0.22466637 3.5774139,0.22466637 Z"
         id="path1027-2"
         sodipodi:nodetypes="cscc" />
    </g>
    <g
       inkscape:groupmode="layer"
       id="layer8"
       inkscape:label="图层 8"
       style="display:inline">
      <rect
         style="display:inline;fill:#57d8eb;fill-opacity:1;stroke:#2c839b;stroke-width:0.10583333;stroke-linejoin:round;stroke-miterlimit:4;stroke-dasharray:none;stroke-opacity:1"
         id="rect878"
         width="0.42994797"
         height="0.9432314"
         x="1.1707811"
         y="2.2913487"
         ry="0.21497399" />
      <rect
         style="display:inline;fill:#57d8eb;fill-opacity:1;stroke:#2c839b;stroke-width:0.10583333;stroke-linejoin:round;stroke-miterlimit:4;stroke-dasharray:none;stroke-opacity:1"
         id="rect880"
         width="0.42994791"
         height="0.94323081"
         x="2.6326041"
         y="2.2913494"
         ry="0.21497396" />
    </g>
    <g
       inkscape:groupmode="layer"
       id="layer5"
       inkscape:label="图层 5"
       style="display:inline">
      <path
         style="display:inline;fill:none;fill-opacity:1;stroke:#2c839b;stroke-width:0.185208;stroke-linecap:butt;stroke-linejoin:miter;stroke-miterlimit:4;stroke-dasharray:none;stroke-opacity:1"
         d="m 2.1166667,4.0969122 c 1.1178645,0 1.5478126,-0.591183 1.5478126,-1.1997247 0,-0.6085416 -0.2579688,-0.8640253 -0.4299481,-1.0360045 C 3.5784897,1.5172246 4.0084375,0.31337048 3.4925001,0.14139129 2.9765625,0.05540173 2.6326042,1.0012871 2.5466147,1.6892038 c -0.3439583,-0.08599 -0.5159375,-0.08599 -0.859896,0 C 1.6007292,1.0012871 1.2567708,0.05540173 0.74083341,0.14139129 0.22489581,0.31337048 0.65484377,1.5172246 0.99880203,1.861183 0.82682295,2.0331622 0.56885418,2.2886459 0.56885418,2.8971876 c 0,0.6085417 0.42994785,1.1997246 1.54781252,1.1997246 z"
         id="path865-4"
         sodipodi:nodetypes="cccccccccc" />
    </g>
  </g>
</svg>
